<?xml version="1.0" standalone="no"?>
<!DOCTYPE svg PUBLIC "-//W3C//DTD SVG 20010904//EN"
 "http://www.w3.org/TR/2001/REC-SVG-20010904/DTD/svg10.dtd">
<svg version="1.0" xmlns="http://www.w3.org/2000/svg"
 width="300.000000pt" height="300.000000pt" viewBox="0 0 300.000000 300.000000"
 preserveAspectRatio="xMidYMid meet">
<metadata>
Created by potrace 1.14, written by Peter Selinger 2001-2017
</metadata>
<g transform="translate(0.000000,300.000000) scale(0.100000,-0.100000)"
fill="#000000" stroke="none">
<path d="M0 2817 l0 -183 35 -17 c20 -10 60 -17 90 -17 29 0 56 -4 60 -9 3 -5
30 -17 60 -25 29 -9 61 -23 69 -32 13 -12 39 -14 158 -11 174 5 248 -1 248
-19 0 -10 13 -14 40 -14 29 0 40 -4 40 -15 0 -17 32 -20 61 -5 16 9 19 7 20
-12 0 -13 3 -17 6 -10 2 6 14 12 25 12 15 0 18 -5 13 -19 -4 -14 0 -23 15 -31
11 -6 20 -7 20 -3 0 4 9 -5 20 -22 23 -35 16 -49 -9 -16 -17 22 -18 22 -36 5
-17 -17 -17 -17 -11 3 5 15 0 25 -19 37 -14 9 -25 12 -25 6 0 -5 -15 -10 -32
-10 -25 0 -29 -3 -18 -10 12 -8 11 -10 -6 -10 -23 0 -40 -26 -22 -32 13 -5 2
-28 -13 -28 -5 0 -9 8 -10 18 0 14 -2 14 -9 -3 -7 -16 -9 -17 -9 -3 -1 20 -19
24 -78 19 -29 -2 -43 -8 -43 -18 0 -12 -12 -13 -67 -8 -88 9 -87 9 -93 16 -3
4 -48 8 -100 11 -52 2 -87 2 -77 0 33 -7 17 -22 -23 -22 -23 0 -40 -5 -40 -11
0 -8 -18 -10 -61 -5 -57 6 -61 5 -56 -13 3 -12 -3 -27 -14 -37 -16 -14 -21
-15 -36 -3 -10 7 -15 10 -11 5 4 -5 3 -17 -3 -27 -7 -14 -5 -23 11 -39 11 -11
20 -28 20 -38 0 -10 5 -23 11 -29 14 -14 3 -33 -20 -33 -22 0 -41 -19 -41 -42
0 -10 -3 -17 -7 -17 -33 5 -33 11 -31 -808 l3 -808 22 -3 c13 -2 23 -10 23
-17 0 -20 73 -55 115 -55 19 0 35 -4 35 -9 0 -4 15 -11 33 -15 17 -3 44 -9 60
-12 20 -5 27 -2 27 8 0 8 12 20 26 26 27 13 50 6 74 -22 7 -9 27 -16 44 -16
21 0 27 -3 17 -9 -7 -5 -10 -14 -7 -20 10 -16 26 -14 26 4 0 8 5 15 11 15 5 0
15 14 20 30 7 19 18 30 29 30 24 0 35 -17 21 -34 -9 -11 -3 -15 30 -20 43 -7
69 -25 69 -48 0 -8 5 -19 12 -26 9 -9 8 -12 -5 -12 -9 0 -17 -7 -17 -15 0 -8
9 -15 20 -15 11 0 20 -5 20 -11 0 -5 4 -8 9 -5 5 3 11 -1 14 -8 3 -8 1 -17 -6
-19 -19 -6 12 -37 37 -37 25 0 46 -17 46 -38 0 -7 16 -29 36 -48 l37 -34 404
0 c239 0 402 4 399 9 -3 5 -15 7 -26 4 -16 -4 -19 -2 -14 12 5 13 14 15 38 11
17 -4 34 -13 39 -21 7 -13 93 -15 642 -15 l635 0 0 595 0 595 -42 -2 c-24 -1
-153 -1 -288 0 l-245 2 -2 41 c-1 43 13 42 19 -1 l3 -25 277 0 278 0 0 96 0
95 -36 -2 c-20 -2 -43 -9 -50 -15 -21 -17 -28 -4 -27 51 1 40 -2 50 -15 52
-26 2 -35 4 -56 13 -11 5 -26 3 -37 -3 -10 -7 -27 -12 -37 -12 -24 0 -72 -44
-72 -65 0 -19 -26 -20 -34 0 -9 24 -56 38 -81 25 -12 -6 -28 -10 -36 -8 -9 2
-14 -6 -15 -22 -2 -42 -4 -44 -17 -25 -10 13 -21 16 -41 11 -18 -4 -25 -3 -21
4 10 16 -23 24 -41 10 -11 -10 -18 -10 -26 -2 -18 18 -37 14 -35 -8 1 -11 16
-27 35 -37 22 -12 32 -24 29 -35 -3 -9 1 -25 9 -35 7 -10 14 -31 14 -47 0 -23
-3 -26 -14 -17 -11 9 -15 9 -18 -1 -4 -10 -8 -10 -21 1 -15 12 -17 10 -17 -17
0 -24 -4 -30 -15 -26 -8 4 -12 10 -9 15 3 5 0 9 -6 9 -7 0 -9 8 -5 20 7 22
-21 52 -58 60 -12 3 -22 11 -22 17 0 6 -3 15 -7 19 -5 4 -8 2 -8 -6 0 -10 -3
-10 -15 0 -8 6 -19 9 -26 5 -6 -4 -15 -1 -20 6 -4 7 -10 11 -14 8 -3 -3 6 -18
19 -32 20 -21 22 -31 16 -59 -4 -18 -8 -26 -9 -18 -1 17 -50 50 -73 50 -7 0
-30 16 -50 34 -21 19 -56 45 -78 59 -22 13 -37 27 -33 30 3 4 1 7 -5 7 -7 0
-12 7 -12 15 0 8 -5 24 -12 34 -9 15 -16 17 -34 9 -18 -8 -26 -7 -40 6 -12 12
-20 14 -27 7 -15 -15 -27 -14 -27 3 0 8 -11 17 -24 20 -15 4 -26 15 -29 29
l-4 22 -8 -23 c-6 -18 -10 -20 -16 -10 -7 10 -9 8 -9 -6 0 -15 -3 -16 -14 -7
-11 9 -19 9 -33 1 -15 -10 -27 -9 -57 4 -32 13 -36 18 -26 31 7 8 8 15 2 15
-5 0 -15 -7 -22 -15 -16 -20 -46 -19 -54 1 -5 12 -14 15 -36 10 -41 -8 -38 9
5 29 19 9 39 23 46 31 12 15 34 20 25 6 -2 -4 23 -5 57 -2 34 3 87 5 117 4 30
-1 74 -2 96 -3 33 -1 43 -5 47 -21 4 -16 14 -20 46 -20 30 0 41 4 41 15 0 17
-12 19 -26 5 -8 -8 -15 -6 -25 6 -12 15 -3 16 116 9 72 -4 138 -12 149 -17 10
-5 34 -7 52 -3 32 6 36 4 45 -24 11 -30 13 -31 69 -31 32 0 71 7 86 15 16 8
38 15 49 15 11 0 26 4 33 8 19 13 -21 44 -60 48 -89 7 -149 17 -154 25 -3 5
-12 9 -19 9 -8 0 -23 7 -34 16 -15 13 -16 20 -8 29 9 10 14 10 20 1 6 -8 10
-8 13 0 3 7 14 10 25 7 10 -3 26 1 35 8 9 7 66 27 128 43 129 34 273 42 446
25 58 -6 109 -10 115 -9 5 1 12 -7 16 -17 4 -10 8 264 8 610 l1 627 -1500 0
-1500 0 0 -183z m1673 38 c15 -13 27 -26 27 -29 0 -9 -45 4 -48 14 -2 6 -8 8
-13 4 -5 -3 -9 1 -9 10 0 8 -6 17 -12 19 -7 3 -4 6 7 6 11 0 32 -11 48 -24z
m202 -53 c-32 -7 -12 -24 44 -37 8 -2 24 -16 37 -32 18 -22 25 -26 35 -15 14
13 50 17 48 5 -4 -24 3 -45 22 -64 16 -16 18 -23 9 -29 -7 -4 -9 -16 -6 -28 6
-17 1 -24 -23 -37 -28 -14 -30 -14 -24 1 5 13 2 15 -15 9 -18 -5 -22 -2 -22
14 0 12 4 21 9 21 5 0 11 8 14 18 2 9 8 24 11 33 4 10 2 19 -7 22 -10 4 -13
-1 -9 -19 2 -14 0 -24 -7 -24 -6 0 -11 6 -11 14 0 16 -27 29 -41 20 -5 -3 -10
3 -10 13 -1 10 -2 23 -4 28 -1 6 -3 16 -3 23 -3 20 -22 14 -22 -8 0 -11 -4
-20 -9 -20 -4 0 -6 -11 -4 -24 3 -13 0 -27 -7 -31 -7 -4 -10 -2 -9 6 2 8 -7
36 -20 62 -12 27 -20 51 -17 54 3 4 -2 12 -12 19 -16 12 -16 13 3 15 11 1 26
1 33 0 6 -1 12 4 12 11 0 9 3 9 10 -2 7 -11 5 -16 -5 -18z m-565 -28 c15 -37
12 -42 -10 -15 -22 26 -26 41 -10 41 6 0 15 -12 20 -26z m460 -25 c0 -10 -5
-19 -11 -19 -6 0 -9 7 -5 15 3 8 1 15 -4 15 -6 0 -10 4 -10 10 0 5 7 7 15 4 8
-4 15 -15 15 -25z m-401 -4 c3 -17 2 -17 -13 -3 -19 20 -21 31 -3 26 6 -3 14
-13 16 -23z m-135 -61 c11 -30 6 -37 -13 -18 -10 10 -17 22 -14 27 7 12 21 8
27 -9z m950 -1 c-4 -10 -7 -31 -6 -48 0 -18 -2 -24 -6 -15 -12 25 -32 22 -32
-5 0 -24 -2 -25 -22 -14 -21 11 -22 11 -9 -4 9 -11 10 -17 2 -17 -19 0 -12
-15 15 -27 23 -11 24 -10 19 10 -5 17 -4 19 4 7 6 -8 11 -33 11 -55 0 -28 3
-36 9 -26 8 12 11 9 16 -12 4 -15 11 -25 15 -22 4 2 5 -8 2 -23 -5 -25 -4 -26
12 -9 10 9 21 15 26 12 12 -8 18 30 8 50 -13 23 6 45 24 27 16 -16 25 -15 25
3 0 9 -6 14 -14 11 -17 -7 -16 4 2 27 13 18 14 18 26 -1 7 -11 19 -18 26 -15
7 3 13 -2 13 -11 0 -9 -4 -16 -10 -16 -20 0 -10 -19 13 -23 19 -4 19 -4 -5 -6
-21 -1 -25 -5 -21 -22 4 -15 0 -22 -15 -26 -17 -4 -19 -9 -12 -34 5 -16 5 -29
0 -29 -12 0 -8 -43 4 -52 6 -4 7 -11 2 -15 -5 -4 -11 -2 -13 5 -3 6 -11 12
-19 12 -8 0 -17 6 -20 14 -3 8 -12 17 -20 20 -8 3 -13 2 -10 -3 5 -7 -83 -22
-92 -15 -2 1 6 18 18 39 11 20 15 33 9 29 -8 -4 -9 -3 -5 4 4 7 14 12 23 12
12 0 13 3 3 15 -6 8 -8 20 -4 26 4 7 -4 4 -19 -7 -19 -14 -24 -25 -20 -43 4
-17 2 -22 -8 -19 -8 3 -13 15 -12 27 2 12 -1 20 -6 17 -5 -3 -11 4 -15 17 -12
45 -6 52 18 22 l24 -30 0 36 c0 20 -4 42 -9 50 -7 11 -9 9 -9 -6 0 -17 -2 -17
-10 -5 -6 10 -10 11 -10 3 0 -7 -7 -13 -15 -13 -8 0 -15 -6 -15 -14 0 -16 18
-73 32 -103 8 -17 8 -27 -3 -40 -13 -16 -12 -17 4 -4 15 12 17 11 17 -2 0 -18
-54 -60 -64 -49 -4 4 -12 -1 -17 -10 -11 -20 -76 -40 -138 -43 l-45 -2 30 24
c16 13 28 28 26 34 -5 21 9 47 28 52 12 3 18 1 14 -5 -9 -14 36 1 53 18 7 7 9
15 4 18 -13 8 -1 46 14 46 8 0 13 13 12 33 0 57 3 67 18 67 8 0 15 8 15 18 0
10 3 22 7 26 4 4 9 26 10 49 3 44 23 78 23 39 0 -12 5 -22 10 -22 6 0 10 7 10
16 0 10 6 14 14 11 9 -4 17 2 21 14 4 10 11 19 17 19 6 0 7 -7 2 -17z m-1044
-56 c10 -4 8 -6 -7 -6 -13 -1 -23 1 -23 3 0 2 -3 13 -6 23 -5 16 -4 16 8 2 7
-9 20 -18 28 -22z m775 13 c3 -5 1 -10 -4 -10 -6 0 -11 5 -11 10 0 6 2 10 4
10 3 0 8 -4 11 -10z m-652 -32 c4 -12 4 -24 1 -27 -6 -7 -24 20 -24 37 0 21
17 13 23 -10z m507 -9 c0 -11 -4 -17 -10 -14 -5 3 -10 13 -10 21 0 8 5 14 10
14 6 0 10 -9 10 -21z m573 14 c4 -3 -2 -13 -14 -21 -11 -8 -23 -11 -26 -8 -4
3 -1 6 5 6 7 0 12 7 12 15 0 16 12 20 23 8z m-118 -12 c3 -5 1 -12 -5 -16 -5
-3 -10 1 -10 9 0 18 6 21 15 7z m44 -10 c8 -14 6 -24 -9 -41 -25 -29 -28 -25
-22 23 5 41 16 47 31 18z m-969 -32 c0 -5 -11 -9 -25 -9 -33 0 -33 15 0 16 14
1 25 -2 25 -7z m903 -22 c-3 -13 -11 -24 -19 -24 -17 0 -18 19 -2 35 18 18 26
14 21 -11z m-958 4 c3 -5 1 -12 -5 -16 -5 -3 -10 1 -10 9 0 18 6 21 15 7z
m-385 -29 l-25 -5 25 -7 c23 -7 24 -8 6 -15 -13 -6 -21 -4 -24 3 -2 7 -11 12
-20 13 -14 0 -13 2 3 9 11 5 29 8 40 8 15 -1 13 -2 -5 -6z m65 -2 c-3 -5 -10
-10 -16 -10 -5 0 -9 5 -9 10 0 6 7 10 16 10 8 0 12 -4 9 -10z m950 -20 c8 0
15 -7 15 -15 0 -14 -3 -13 -25 1 -14 9 -25 24 -25 33 1 14 2 14 11 -1 5 -10
17 -18 24 -18z m75 -6 c0 -19 -4 -33 -9 -30 -5 4 -11 0 -14 -6 -2 -7 -7 2 -12
21 -5 24 -3 36 6 42 24 15 29 10 29 -27z m30 21 c0 -8 -4 -15 -10 -15 -5 0
-10 7 -10 15 0 8 5 15 10 15 6 0 10 -7 10 -15z m247 -7 c-3 -8 -6 -5 -6 6 -1
11 2 17 5 13 3 -3 4 -12 1 -19z m-1107 -18 c0 -5 -2 -10 -4 -10 -3 0 -8 5 -11
10 -3 6 -1 10 4 10 6 0 11 -4 11 -10z m-125 -10 c-3 -5 -12 -10 -18 -10 -7 0
-6 4 3 10 19 12 23 12 15 0z m175 -18 c0 -15 -2 -15 -10 -2 -13 20 -13 33 0
25 6 -3 10 -14 10 -23z m1254 3 c11 -8 14 -15 8 -15 -7 0 -12 -7 -12 -15 0 -8
-12 -21 -27 -29 -18 -10 -22 -15 -12 -16 9 0 29 10 45 23 l29 22 -23 -32 c-23
-32 -12 -49 12 -19 17 23 50 24 54 2 3 -15 0 -18 -17 -13 -12 3 -19 2 -16 -3
3 -4 -2 -10 -10 -14 -22 -8 -18 -43 6 -67 12 -12 17 -25 13 -29 -11 -10 -64
-1 -64 11 0 5 -7 9 -16 9 -8 0 -12 5 -9 10 4 6 11 8 16 5 5 -4 9 -2 9 2 0 16
-24 33 -44 33 -20 -1 -20 -1 -2 -11 17 -11 17 -13 -10 -36 -27 -23 -29 -23
-42 -6 -11 16 -14 16 -22 3 -13 -20 -13 -70 0 -70 6 0 10 8 8 18 -4 21 41 30
53 11 4 -8 11 -10 16 -6 4 5 1 12 -7 17 -29 18 1 23 38 6 22 -10 55 -16 75
-15 44 4 56 -5 27 -21 -20 -11 -58 -9 -91 4 -8 4 -26 2 -40 -3 -13 -5 -18 -10
-11 -10 7 -1 10 -5 7 -11 -9 -14 -45 -13 -45 2 0 6 -7 4 -18 -5 -10 -10 -24
-17 -31 -17 -14 0 -34 -48 -25 -62 5 -7 2 -8 -5 -3 -7 4 -11 16 -8 26 4 15 2
17 -13 9 -9 -5 -20 -7 -22 -4 -3 2 -5 -6 -4 -18 1 -15 7 -23 19 -22 9 1 17 -2
17 -7 0 -5 7 -9 16 -9 14 0 14 -2 0 -15 -18 -18 -62 -20 -73 -2 -4 6 -19 12
-32 13 -22 1 -22 0 -7 -12 20 -14 11 -22 -27 -22 -22 0 -26 4 -22 19 5 13 2
17 -7 14 -14 -6 -19 -45 -6 -45 4 0 5 -7 2 -15 -4 -8 -12 -15 -19 -15 -16 0
-30 33 -16 38 6 2 11 8 11 14 0 5 -10 6 -22 2 -21 -6 -22 -5 -8 11 13 16 13
18 0 13 -9 -3 -14 -15 -12 -31 4 -37 -16 -43 -31 -9 -12 28 -33 32 -49 8 -5
-7 -13 -5 -25 5 -22 18 -105 24 -133 9 -16 -9 -20 -8 -20 5 0 9 -5 13 -10 10
-6 -4 -7 -11 -4 -17 4 -7 -2 -7 -17 -2 -13 4 -32 8 -41 8 -25 0 -22 8 11 31
17 11 32 27 34 36 2 9 20 28 40 43 33 25 39 26 86 18 31 -6 48 -6 45 0 -12 18
71 -4 89 -24 9 -11 17 -17 17 -12 0 4 6 -1 14 -12 14 -18 15 -18 13 4 -1 12
-7 22 -15 22 -7 0 -10 5 -6 12 4 6 3 8 -3 5 -6 -4 -24 0 -39 8 -16 8 -49 15
-74 16 -39 0 -42 2 -21 10 13 5 32 7 42 4 9 -3 44 3 76 15 32 11 63 21 68 23
6 1 12 4 15 8 3 3 21 14 40 26 36 21 125 29 135 12 3 -4 -4 -6 -16 -4 -17 3
-19 2 -9 -10 8 -10 17 -12 29 -6 9 5 29 7 44 4 20 -4 27 -1 27 10 0 8 6 18 13
20 7 3 4 6 -6 6 -10 1 -15 6 -12 11 4 6 16 8 28 5 12 -2 16 -2 10 1 -7 3 -13
12 -13 20 0 9 -5 12 -12 8 -7 -5 -8 -3 -3 6 4 7 2 16 -6 21 -12 7 -11 12 5 26
17 17 18 17 11 -4 -4 -14 -2 -23 4 -23 6 0 11 5 11 10 0 6 6 10 14 10 7 0 19
6 25 14 10 11 8 17 -6 25 -17 10 -17 10 2 10 11 0 29 -6 39 -14z m-1449 -15
c-3 -5 -14 -10 -23 -10 -15 0 -15 2 -2 10 20 13 33 13 25 0z m1400 0 c-3 -5
-11 -10 -16 -10 -6 0 -7 5 -4 10 3 6 11 10 16 10 6 0 7 -4 4 -10z m-615 -20
c0 -5 -4 -10 -10 -10 -5 0 -10 5 -10 10 0 6 5 10 10 10 6 0 10 -4 10 -10z
m-873 -42 c-3 -8 -6 -5 -6 6 -1 11 2 17 5 13 3 -3 4 -12 1 -19z m747 -18 c5
-5 18 -10 28 -10 22 0 14 -26 -19 -58 -25 -23 -43 -22 -43 4 0 8 -7 28 -15 43
-8 16 -12 31 -9 34 8 8 46 -1 58 -13z m-784 -15 c-7 -9 -9 -19 -5 -23 4 -4 10
-1 12 6 5 14 71 16 93 2 25 -16 1 -24 -27 -9 -21 11 -27 11 -30 1 -3 -6 -9
-10 -14 -7 -5 4 -19 -3 -31 -14 -12 -12 -27 -21 -32 -21 -6 0 -2 7 9 16 15 11
17 17 7 23 -16 10 -5 41 15 41 13 0 13 -3 3 -15z m1005 -27 c-6 -16 -4 -20 9
-15 8 3 18 2 21 -3 6 -9 -70 -64 -105 -75 -21 -7 -22 -5 -16 20 4 17 3 24 -4
20 -5 -3 -10 -17 -10 -29 0 -39 -116 -133 -137 -112 -4 3 -6 25 -6 49 0 59 52
115 117 123 25 4 43 11 40 15 -6 11 -1 11 20 3 13 -5 14 -9 5 -20 -20 -24 3
-15 26 10 15 16 19 27 12 30 -7 2 -2 5 11 5 19 1 22 -3 17 -21z m-125 2 c0 -5
-5 -10 -11 -10 -5 0 -7 5 -4 10 3 6 8 10 11 10 2 0 4 -4 4 -10z m-690 -10 l25
-1 -25 -11 c-33 -14 -53 -15 -62 -3 -13 17 -9 22 15 19 12 -1 33 -3 47 -4z
m110 1 c0 -5 -13 -12 -30 -16 -36 -8 -41 -29 -6 -23 18 4 26 0 29 -14 3 -10
13 -18 22 -18 12 0 16 7 13 28 -3 23 1 27 22 28 14 1 27 2 30 4 3 1 20 3 38 5
26 2 32 -1 27 -13 -4 -12 -3 -13 9 -3 18 15 50 11 52 -7 1 -6 2 -17 3 -23 0
-6 10 -8 20 -4 33 10 32 -13 -1 -24 -31 -11 -47 -3 -48 22 0 4 -8 7 -17 7 -16
-1 -16 -2 2 -17 17 -13 17 -15 2 -10 -11 4 -17 2 -16 -6 3 -23 -1 -40 -8 -34
-3 4 -11 0 -17 -8 -6 -7 -24 -17 -39 -21 -26 -6 -27 -5 -16 19 6 13 16 24 23
24 27 -1 46 4 46 11 0 9 -117 8 -147 -2 -19 -6 -22 -4 -16 10 13 34 -17 3 -32
-33 -8 -19 -20 -33 -26 -31 -6 2 -10 7 -10 11 1 4 1 14 1 23 0 8 5 12 10 9 6
-3 10 -1 10 4 0 6 -7 11 -15 11 -8 0 -15 -4 -15 -10 0 -5 -7 -10 -15 -10 -22
0 -18 18 4 25 13 4 18 13 16 26 -5 27 23 56 60 62 17 2 31 5 33 6 1 0 2 -3 2
-8z m-235 -10 c-6 -5 -21 -12 -35 -15 l-25 -7 25 15 c28 17 50 21 35 7z m50
-10 c3 -5 0 -13 -6 -17 -7 -4 -9 -3 -5 4 3 6 -2 13 -11 15 -16 4 -16 5 -1 6 9
0 19 -3 23 -8z m505 -21 c0 -11 -4 -20 -9 -20 -13 0 -32 26 -24 33 13 14 33 6
33 -13z m88 -6 c9 -16 5 -54 -5 -54 -2 0 -17 7 -32 15 -41 20 -46 43 -13 48
15 2 30 5 34 6 4 0 11 -6 16 -15z m-631 0 c-3 -3 -12 -4 -19 -1 -8 3 -5 6 6 6
11 1 17 -2 13 -5z m63 -3 c0 -5 -6 -14 -14 -20 -11 -9 -16 -9 -21 0 -4 6 -1
15 6 20 18 11 29 11 29 0z m48 -13 c-3 -11 -22 -27 -56 -44 -7 -4 -19 -1 -25
6 -9 10 -9 11 0 6 6 -3 18 2 25 12 19 28 60 42 56 20z m-395 -14 c-2 -5 8 -16
22 -24 14 -7 25 -21 25 -29 0 -26 32 -47 72 -48 24 -1 46 -10 66 -28 27 -24
29 -30 21 -55 -8 -22 -19 -30 -47 -35 -20 -4 -42 -11 -49 -17 -13 -10 -73 18
-73 35 0 5 -7 1 -16 -7 -18 -18 -34 -21 -34 -6 0 6 -7 10 -16 10 -8 0 -12 4
-9 10 3 5 0 7 -8 4 -8 -3 -18 -1 -21 5 -4 6 -14 8 -24 5 -12 -4 -13 -3 -4 3 7
6 10 18 6 29 -4 14 -3 15 4 6 7 -11 11 -10 16 4 4 11 2 20 -3 22 -6 2 -11 8
-11 13 0 4 7 6 15 3 8 -4 15 -1 15 5 0 6 -12 16 -26 21 -23 9 -25 14 -19 43 4
17 12 35 18 38 16 11 85 5 80 -7z m287 -4 c0 -5 -7 -10 -15 -10 -8 0 -15 5
-15 10 0 6 7 10 15 10 8 0 15 -4 15 -10z m563 -39 c25 -17 36 -32 33 -44 -2
-9 -1 -15 4 -12 4 3 10 -6 12 -20 4 -19 2 -23 -7 -15 -6 5 -14 7 -18 4 -9 -9
-47 16 -47 31 0 8 -4 15 -10 15 -5 0 -10 -7 -10 -15 0 -8 -8 -15 -17 -15 -15
0 -16 2 -3 10 13 9 7 14 -12 11 -5 0 -8 4 -8 10 0 5 -5 7 -11 3 -8 -5 -8 -9 1
-14 7 -4 9 -16 5 -29 -8 -25 -25 -28 -25 -4 0 13 -3 14 -12 5 -20 -20 -28 -14
-21 18 6 35 -9 40 -30 10 -16 -23 -67 -51 -80 -43 -5 3 2 11 15 17 12 7 22 20
22 29 -1 9 2 15 6 12 5 -3 21 0 37 7 15 6 31 11 34 10 4 -1 5 7 2 16 -3 13 5
20 29 28 41 13 63 9 111 -25z m-294 8 c-8 -5 -21 -9 -29 -9 -12 1 -11 4 4 15
10 8 23 12 29 8 5 -3 3 -9 -4 -14z m-54 -18 c-6 -21 -35 -30 -35 -12 0 12 31
43 37 37 3 -2 2 -14 -2 -25z m-155 0 c0 -12 -20 -25 -27 -18 -7 7 6 27 18 27
5 0 9 -4 9 -9z m-700 -21 c0 -5 7 -7 15 -4 11 5 15 -1 15 -21 0 -18 4 -25 13
-22 6 2 18 -1 24 -8 10 -10 9 -16 -3 -26 -12 -10 -13 -9 -8 4 5 13 -1 16 -27
14 -21 -1 -34 3 -35 11 -1 6 -2 19 -3 27 0 8 -8 15 -16 15 -8 0 -15 5 -15 10
0 6 9 10 20 10 11 0 20 -4 20 -10z m1930 -45 c0 -8 -4 -15 -10 -15 -5 0 -7 7
-4 15 4 8 8 15 10 15 2 0 4 -7 4 -15z m-1690 -25 c0 -5 -5 -10 -11 -10 -5 0
-7 5 -4 10 3 6 8 10 11 10 2 0 4 -4 4 -10z m378 -52 c19 -19 14 -55 -8 -61
-15 -4 -22 1 -26 19 -3 13 -10 24 -15 24 -5 0 -9 4 -9 9 0 8 12 14 41 20 3 0
10 -4 17 -11z m-393 -453 c11 -4 29 -8 40 -9 15 -1 21 -9 23 -36 4 -43 18 -60
48 -60 12 0 26 -4 29 -10 3 -5 16 -9 28 -8 26 2 97 -58 97 -83 0 -9 -7 -22
-15 -29 -21 -18 -19 -48 5 -55 11 -3 20 -13 20 -21 0 -12 19 -19 44 -15 4 1
13 -2 20 -7 6 -5 22 -9 35 -10 18 -1 22 3 18 19 -8 30 7 22 20 -11 7 -19 20
-31 39 -36 16 -4 40 -15 53 -25 13 -10 27 -17 31 -14 4 2 15 -4 25 -15 21 -23
24 -94 6 -157 -13 -46 -19 -50 -40 -30 -11 10 -13 9 -7 -3 4 -8 -1 -5 -12 8
-14 15 -22 18 -25 10 -4 -10 -7 -10 -15 0 -5 7 -15 12 -23 10 -9 -2 -13 4 -11
15 6 32 -25 67 -59 67 -28 0 -79 39 -79 61 0 4 -20 17 -45 28 -25 11 -48 26
-51 34 -3 9 -13 13 -26 9 -14 -3 -19 -1 -14 6 4 7 2 12 -3 12 -6 0 -11 12 -11
26 0 35 -22 54 -64 54 -27 0 -39 6 -55 29 -12 16 -21 32 -21 36 0 4 -16 26
-35 49 -19 24 -35 48 -35 53 0 5 -9 18 -19 27 -11 10 -21 30 -23 45 -2 14 -8
26 -15 26 -6 0 -15 4 -20 9 -4 5 15 6 45 4 29 -3 55 -1 58 4 3 4 8 7 12 5 4
-2 16 -8 27 -12z m415 -218 c0 -12 -5 -29 -10 -37 -7 -11 -10 -3 -10 28 0 26
4 41 10 37 6 -3 10 -16 10 -28z m390 -21 c0 -14 5 -28 11 -32 6 -4 8 -20 4
-40 -5 -30 -3 -34 20 -40 14 -3 32 -4 40 0 8 3 15 0 16 -7 0 -7 7 3 15 21 16
36 45 42 78 17 11 -8 28 -15 38 -15 9 0 22 -9 28 -19 5 -11 22 -21 37 -23 25
-3 28 -7 28 -38 -1 -19 -4 -49 -8 -65 -7 -29 -6 -31 20 -30 26 0 28 -4 31 -40
5 -59 30 -77 103 -76 54 0 59 -1 65 -23 3 -13 1 -33 -5 -44 -14 -27 -14 -32 4
-32 8 0 15 -3 16 -7 3 -36 12 -60 24 -69 7 -6 15 -17 17 -24 2 -8 17 -21 33
-29 18 -10 31 -26 33 -39 4 -25 -23 -62 -45 -62 -21 0 -15 -16 12 -28 16 -8
25 -20 25 -35 0 -16 9 -26 32 -35 21 -8 36 -8 42 -2 6 6 14 6 21 0 8 -7 21 -2
41 15 32 28 33 28 53 16 9 -6 22 -4 37 5 20 14 24 13 49 -11 16 -14 35 -25 43
-25 9 0 33 -19 53 -42 36 -39 41 -58 18 -58 -6 0 -7 5 -4 10 3 6 -3 10 -15 10
-21 0 -21 -1 -4 -30 10 -16 14 -33 10 -37 -5 -4 -11 -2 -13 5 -3 6 -12 12 -20
12 -13 0 -13 -3 -2 -16 10 -13 10 -17 -1 -24 -17 -11 -40 -2 -40 16 0 8 -4 14
-10 14 -5 0 -10 13 -10 29 0 24 -4 29 -27 29 -15 0 -33 -7 -41 -14 -16 -16
-38 -18 -47 -4 -3 6 -1 10 6 10 7 0 10 3 7 6 -4 3 -15 1 -26 -5 -13 -7 -22 -7
-29 0 -6 6 -21 8 -34 4 l-22 -7 26 -16 c14 -9 28 -24 30 -34 3 -10 14 -18 25
-18 12 0 28 -10 36 -22 23 -32 20 -43 -8 -25 -13 9 -33 13 -44 11 -11 -3 -23
-1 -26 5 -12 19 -24 12 -35 -19 -5 -16 -14 -30 -18 -30 -18 0 -11 -41 9 -51
32 -17 68 -60 68 -80 0 -10 9 -23 20 -29 23 -12 18 -30 -7 -30 -9 0 -14 3 -10
6 10 10 -22 64 -37 64 -8 0 -17 -7 -20 -16 -3 -8 -10 -12 -16 -9 -7 4 -6 13 1
27 8 14 8 23 0 31 -8 8 -13 2 -17 -21 l-7 -33 -16 23 c-9 13 -15 26 -13 30 1
4 -14 14 -33 22 -19 8 -35 20 -35 25 0 6 -18 11 -40 11 -33 0 -42 -4 -52 -25
-12 -26 -23 -31 -33 -15 -3 5 -21 17 -40 26 -19 9 -35 23 -35 30 0 8 -7 14
-16 14 -8 0 -13 -4 -10 -9 7 -10 -22 -37 -30 -28 -3 3 -7 22 -9 43 -2 21 -8
40 -14 42 -6 2 -11 8 -11 14 0 6 14 8 38 4 20 -4 33 -3 27 1 -5 4 -10 15 -10
23 0 9 -7 14 -18 12 -25 -4 -45 20 -51 64 l-6 39 12 -32 c13 -32 14 -32 42
-18 38 20 53 19 61 -4 3 -10 15 -21 25 -24 12 -3 20 -14 20 -26 0 -15 6 -21
23 -21 20 1 20 2 5 11 -10 5 -18 16 -18 24 0 8 -7 18 -16 23 -11 6 -13 11 -5
16 16 10 14 46 -2 46 -8 0 -22 19 -33 41 -17 39 -17 42 -1 54 15 11 16 14 2
25 -8 7 -15 28 -15 47 0 32 -2 35 -23 29 -27 -6 -80 38 -55 46 11 4 11 8 -1
21 -7 10 -10 17 -6 17 5 0 0 9 -10 20 -14 16 -15 20 -4 20 8 0 23 -6 34 -13
13 -8 33 -10 55 -6 32 6 32 6 7 8 -24 1 -27 4 -22 21 5 16 2 20 -15 20 -12 0
-19 4 -15 9 3 5 -3 12 -12 15 -10 4 -31 26 -48 51 -30 44 -45 56 -45 33 0 -6
-7 -4 -18 5 -10 10 -24 17 -30 17 -7 0 -12 7 -12 15 0 8 -7 15 -15 15 -8 0
-15 5 -15 11 0 6 12 9 28 7 15 -2 26 -8 25 -15 -2 -7 3 -13 11 -13 8 0 16 -4
18 -10 2 -5 13 -7 26 -3 l23 6 -22 11 c-29 14 -34 30 -14 49 19 20 19 22 -2
25 -74 8 -116 18 -105 25 6 5 12 16 12 26 0 14 -6 17 -25 13 -14 -2 -25 -8
-25 -13 0 -5 -7 -9 -16 -9 -11 0 -14 5 -10 16 4 10 0 18 -13 21 -31 8 -81 95
-81 142 0 23 5 41 11 41 5 0 7 -5 3 -11 -4 -7 -1 -10 7 -7 8 3 13 17 12 32 -1
14 2 26 8 26 5 0 9 -11 9 -24z m1080 -186 c0 -5 -5 -10 -11 -10 -5 0 -7 5 -4
10 3 6 8 10 11 10 2 0 4 -4 4 -10z m-1260 -165 c0 -9 7 -18 15 -21 8 -4 15
-15 15 -26 0 -14 5 -18 18 -14 12 4 26 -1 37 -14 16 -18 17 -25 6 -61 -7 -23
-17 -47 -22 -53 -5 -6 -16 -20 -24 -31 -14 -21 -32 -15 -19 7 5 7 9 18 10 23
3 32 18 75 25 75 22 0 6 19 -21 25 -21 5 -30 13 -30 26 0 10 -5 19 -11 19 -18
0 -41 30 -35 45 7 20 36 19 36 0z m-431 -227 c0 -31 -3 -37 -8 -24 -7 18 -3
66 5 66 2 0 4 -19 3 -42z m578 -75 c4 -10 11 -22 17 -26 7 -5 3 -7 -9 -5 -11
2 -20 10 -20 18 0 8 -11 17 -25 21 l-25 7 28 1 c18 1 30 -5 34 -16z m131 -19
c12 -8 22 -22 22 -31 0 -14 -4 -13 -23 5 -13 12 -29 22 -36 22 -7 0 -9 5 -6
10 8 14 17 13 43 -6z m78 -96 c2 -53 1 -56 -15 -41 -11 12 -12 18 -3 21 16 5
16 32 0 32 -7 0 -19 4 -27 9 -12 8 -13 12 -1 26 27 32 45 14 46 -47z m-860
-55 c24 -28 30 -43 17 -43 -5 0 -18 16 -31 35 -27 42 -19 46 14 8z m170 -40
c-10 -10 -19 5 -10 18 6 11 8 11 12 0 2 -7 1 -15 -2 -18z m774 6 c0 -5 -4 -9
-10 -9 -5 0 -10 7 -10 16 0 8 5 12 10 9 6 -3 10 -10 10 -16z m-820 -28 c5 -11
19 -22 29 -26 11 -3 23 -15 26 -26 4 -10 14 -19 23 -19 22 0 75 -67 68 -85 -2
-7 0 -16 7 -19 7 -2 2 -5 -10 -5 -12 -1 -25 -6 -28 -12 -5 -6 -12 -4 -22 8 -8
10 -12 12 -8 6 3 -7 1 -13 -4 -13 -6 0 -11 4 -11 10 0 5 -12 13 -27 16 -16 4
-40 15 -54 25 -21 14 -24 24 -21 52 3 25 -2 41 -16 55 -18 18 -19 21 -4 36 22
21 39 20 52 -3z m60 -12 c0 -5 -7 -9 -15 -9 -15 0 -20 12 -9 23 8 8 24 -1 24
-14z m80 -45 c0 -2 -7 -4 -15 -4 -8 0 -15 4 -15 10 0 5 7 7 15 4 8 -4 15 -8
15 -10z m93 -23 c23 -20 47 -64 47 -88 -1 -16 -2 -16 -13 -3 -7 9 -20 14 -30
12 -10 -2 -17 0 -16 5 4 24 -2 53 -11 48 -5 -3 -10 0 -10 9 0 8 -3 22 -7 32
-7 19 4 14 40 -15z m1226 -54 c13 -16 5 -28 -14 -21 -7 3 -16 1 -20 -5 -10
-18 -25 -12 -18 7 12 31 34 40 52 19z m-32 -63 c-3 -3 -12 -4 -19 -1 -8 3 -5
6 6 6 11 1 17 -2 13 -5z m-1066 -174 l-6 -55 -5 80 c-6 94 1 142 11 75 4 -25
4 -70 0 -100z m156 108 c-3 -8 -6 -5 -6 6 -1 11 2 17 5 13 3 -3 4 -12 1 -19z
m798 -78 c3 -5 -1 -10 -9 -10 -9 0 -16 5 -16 10 0 6 4 10 9 10 6 0 13 -4 16
-10z"/>
<path d="M1955 2690 c3 -5 8 -10 11 -10 2 0 4 5 4 10 0 6 -5 10 -11 10 -5 0
-7 -4 -4 -10z"/>
<path d="M2030 2599 c0 -11 5 -17 10 -14 6 3 10 13 10 21 0 8 -4 14 -10 14 -5
0 -10 -9 -10 -21z"/>
<path d="M2267 2423 c-4 -3 -7 -11 -7 -17 0 -6 5 -5 12 2 6 6 9 14 7 17 -3 3
-9 2 -12 -2z"/>
<path d="M2220 2410 c0 -6 5 -8 10 -5 6 3 10 0 10 -9 0 -8 -4 -16 -10 -18 -5
-1 1 -8 14 -14 23 -11 24 -11 11 20 -13 31 -35 47 -35 26z"/>
<path d="M2275 2390 c-3 -5 -1 -10 4 -10 6 0 11 5 11 10 0 6 -2 10 -4 10 -3 0
-8 -4 -11 -10z"/>
<path d="M1978 2283 c7 -3 16 -2 19 1 4 3 -2 6 -13 5 -11 0 -14 -3 -6 -6z"/>
<path d="M1920 2270 c-9 -6 -10 -10 -3 -10 6 0 15 5 18 10 8 12 4 12 -15 0z"/>
<path d="M2406 2333 c-11 -11 -6 -23 9 -23 8 0 15 4 15 9 0 13 -16 22 -24 14z"/>
<path d="M2271 2274 c0 -11 3 -14 6 -6 3 7 2 16 -1 19 -3 4 -6 -2 -5 -13z"/>
<path d="M2118 2263 c7 -3 16 -2 19 1 4 3 -2 6 -13 5 -11 0 -14 -3 -6 -6z"/>
<path d="M2218 2252 c9 -10 19 -14 21 -9 2 5 -3 13 -10 18 -24 15 -30 10 -11
-9z"/>
<path d="M2250 2251 c0 -11 4 -22 9 -25 4 -3 6 6 3 19 -5 30 -12 33 -12 6z"/>
<path d="M2440 2260 c20 -13 33 -13 25 0 -3 6 -14 10 -23 10 -15 0 -15 -2 -2
-10z"/>
<path d="M2150 2250 c0 -5 7 -10 16 -10 8 0 12 5 9 10 -3 6 -10 10 -16 10 -5
0 -9 -4 -9 -10z"/>
<path d="M2140 2226 c0 -2 7 -7 16 -10 8 -3 12 -2 9 4 -6 10 -25 14 -25 6z"/>
<path d="M2200 2207 c0 -9 -5 -17 -11 -17 -5 0 -7 5 -4 10 9 14 -1 12 -13 -3
-8 -10 -6 -13 9 -14 20 -2 37 22 25 34 -3 4 -6 -1 -6 -10z"/>
<path d="M1930 2125 c0 -8 6 -15 14 -15 8 0 16 -6 18 -14 3 -13 6 -13 28 -1
l25 14 -23 1 c-13 0 -20 4 -17 10 4 6 11 7 17 4 7 -5 8 -2 3 5 -5 9 -10 10
-18 2 -7 -7 -16 -7 -29 0 -14 7 -18 6 -18 -6z"/>
<path d="M2054 2115 c3 -21 16 -31 16 -12 0 9 -4 18 -9 21 -5 4 -8 -1 -7 -9z"/>
<path d="M2156 2121 c-3 -5 1 -14 9 -21 13 -10 15 -9 15 9 0 21 -14 28 -24 12z"/>
<path d="M2107 2103 c-3 -5 6 -9 20 -10 19 -1 22 1 12 8 -17 11 -26 11 -32 2z"/>
<path d="M1705 2080 c3 -5 8 -10 11 -10 2 0 4 5 4 10 0 6 -5 10 -11 10 -5 0
-7 -4 -4 -10z"/>
<path d="M1250 2290 c-8 -5 -11 -12 -7 -16 4 -4 0 -12 -8 -18 -12 -9 -9 -11
17 -13 18 -1 28 1 22 5 -6 4 -10 17 -9 30 1 12 1 22 1 22 -1 0 -8 -4 -16 -10z"/>
<path d="M1082 2251 c-11 -7 -11 -9 0 -13 7 -3 19 1 26 8 10 11 10 14 0 14 -7
0 -19 -4 -26 -9z"/>
<path d="M600 2106 c0 -9 5 -16 10 -16 6 0 10 4 10 9 0 6 -4 13 -10 16 -5 3
-10 -1 -10 -9z"/>
<path d="M754 2049 c0 -10 4 -19 8 -19 4 0 8 6 8 14 0 8 -4 17 -8 20 -4 2 -8
-4 -8 -15z"/>
<path d="M1380 2180 c0 -5 5 -10 11 -10 5 0 7 5 4 10 -3 6 -8 10 -11 10 -2 0
-4 -4 -4 -10z"/>
<path d="M585 1370 c-3 -5 1 -10 10 -10 9 0 13 5 10 10 -3 6 -8 10 -10 10 -2
0 -7 -4 -10 -10z"/>
<path d="M590 1340 c0 -5 5 -10 10 -10 6 0 10 5 10 10 0 6 -4 10 -10 10 -5 0
-10 -4 -10 -10z"/>
<path d="M795 1236 c-18 -13 -18 -14 8 -9 15 3 24 9 21 14 -7 12 -7 12 -29 -5z"/>
<path d="M1280 1260 c0 -11 2 -20 4 -20 2 0 6 9 9 20 3 11 1 20 -4 20 -5 0 -9
-9 -9 -20z"/>
<path d="M1610 1010 c-9 -6 -10 -10 -3 -10 6 0 15 5 18 10 8 12 4 12 -15 0z"/>
<path d="M1615 920 c3 -5 11 -10 16 -10 6 0 7 5 4 10 -3 6 -11 10 -16 10 -6 0
-7 -4 -4 -10z"/>
<path d="M580 2505 c12 -15 30 -12 30 6 0 5 -10 9 -21 9 -18 0 -19 -2 -9 -15z"/>
<path d="M52 2316 c7 -7 19 -11 25 -9 18 7 5 23 -18 23 -16 0 -18 -2 -7 -14z"/>
<path d="M1685 1599 c-9 -14 -2 -20 14 -10 8 6 9 11 3 15 -6 3 -14 1 -17 -5z"/>
<path d="M2992 1570 c0 -19 2 -27 5 -17 2 9 2 25 0 35 -3 9 -5 1 -5 -18z"/>
<path d="M2045 1560 l-20 -9 20 0 c11 0 29 4 40 9 l20 9 -20 0 c-11 0 -29 -4
-40 -9z"/>
<path d="M1850 1479 c0 -5 5 -7 10 -4 6 3 10 8 10 11 0 2 -4 4 -10 4 -5 0 -10
-5 -10 -11z"/>
<path d="M2208 1483 c7 -3 16 -2 19 1 4 3 -2 6 -13 5 -11 0 -14 -3 -6 -6z"/>
<path d="M2992 1455 c0 -16 2 -22 5 -12 2 9 2 23 0 30 -3 6 -5 -1 -5 -18z"/>
<path d="M0 120 l0 -120 160 0 c100 0 160 4 160 10 0 6 -4 10 -9 10 -5 0 -11
7 -14 14 -4 10 -1 13 8 10 8 -3 17 -14 20 -25 5 -14 16 -19 41 -19 39 0 38 -2
21 36 -32 74 -82 116 -152 130 -19 3 -38 10 -41 15 -3 5 -20 9 -38 9 -19 0
-46 10 -66 25 -19 14 -47 25 -62 25 l-28 0 0 -120z m270 -100 c0 -5 -4 -10
-10 -10 -5 0 -10 5 -10 10 0 6 5 10 10 10 6 0 10 -4 10 -10z"/>
<path d="M490 89 c0 -20 13 -24 63 -20 15 1 27 -3 27 -10 0 -7 8 -9 22 -6 29
8 58 -9 58 -33 0 -18 7 -20 78 -20 l77 1 -32 28 c-18 15 -33 32 -33 38 0 13
-28 25 -41 17 -6 -3 -16 -1 -23 5 -8 7 -55 13 -105 16 -85 3 -91 2 -91 -16z"/>
</g>
</svg>
